<svg width="62" height="59" xmlns="http://www.w3.org/2000/svg">

 <g>
  <title>background</title>
  <rect fill="none" id="canvas_background" height="61" width="64" y="-1" x="-1"/>
 </g>
 <g>
  <title>Layer 1</title>
  <g stroke="null" id="svg_1">
   <path stroke="null" id="svg_2" d="m-0.284112,-0.051108l0,59.051108l62.80257,0l0,-59.051108l-62.80257,0zm12.155336,57.014863l-10.129447,0l0,-10.181226l10.129447,0l0,10.181226zm12.155336,0l-10.129447,0l0,-10.181226l10.129447,0l0,10.181226zm12.155336,0l-10.129447,0l0,-10.181226l10.129447,0l0,10.181226zm12.155336,0l-10.129447,0l0,-10.181226l10.129447,0l0,10.181226zm12.155336,0l-10.129447,0l0,-10.181226l10.129447,0l0,10.181226zm0,-36.652412l0,2.036245l-10.129447,0l0,10.181226l10.129447,0l0,2.036245l0,10.181226l-10.129447,0l0,-10.181226l-2.025889,0l0,10.181226l-10.129447,0l0,-10.181226l-2.025889,0l0,10.181226l-10.129447,0l0,-10.181226l-2.025889,0l0,10.181226l-10.129447,0l0,-10.181226l-2.025889,0l0,10.181226l-10.129447,0l0,-10.181226l0,-2.036245l10.129447,0l0,-10.181226l-10.129447,0l0,-2.036245l0,-10.181226l10.129447,0l0,10.181226l2.025889,0l0,-10.181226l10.129447,0l0,10.181226l2.025889,0l0,-10.181226l10.129447,0l0,10.181226l2.025889,0l0,-10.181226l10.129447,0l0,10.181226l2.025889,0l0,-10.181226l10.129447,0l0,10.181226z"/>
   <rect stroke="null" id="svg_3" height="10.181226" width="10.129447" y="22.347588" x="13.897114"/>
   <rect stroke="null" id="svg_4" height="10.181226" width="10.129447" y="22.347588" x="26.05245"/>
   <rect stroke="null" id="svg_5" height="10.181226" width="10.129447" y="22.347588" x="38.207786"/>
  </g>
 </g>
</svg>